<svg xmlns="http://www.w3.org/2000/svg" width="75.61" height="132.515" viewBox="0 0 75.61 132.515">
  <g id="Group_24" data-name="Group 24" transform="translate(-1246.437 -73.5)">
    <g id="Component_1_1" data-name="Component 1 – 1" transform="translate(1246.937 75.952)">
      <g id="Group_59" data-name="Group 59">
        <circle id="Ellipse_11" data-name="Ellipse 11" cx="4.046" cy="4.046" r="4.046" transform="translate(42.696 48.327)" fill="#fe5803" stroke="#707070" stroke-width="1"/>
        <rect id="Rectangle_30" data-name="Rectangle 30" width="43.625" height="6.232" transform="translate(6.232)" fill="#fff" stroke="#707070" stroke-width="1"/>
        <rect id="Rectangle_31" data-name="Rectangle 31" width="31.59" height="6.232" transform="translate(6.232 49.857)" fill="#fff" stroke="#707070" stroke-width="1"/>
        <rect id="Rectangle_32" data-name="Rectangle 32" width="24.929" height="6.232" transform="translate(12.464 12.464)" fill="#fff" stroke="#707070" stroke-width="1"/>
        <rect id="Rectangle_33" data-name="Rectangle 33" width="24.929" height="6.232" transform="translate(12.464 37.393)" fill="#fff" stroke="#707070" stroke-width="1"/>
        <rect id="Rectangle_34" data-name="Rectangle 34" width="12.464" height="6.232" transform="translate(12.464 24.929)" fill="#fff" stroke="#707070" stroke-width="1"/>
        <rect id="Rectangle_36" data-name="Rectangle 36" width="6.232" height="43.803" transform="translate(43.625)" fill="#fff" stroke="#707070" stroke-width="1"/>
        <rect id="Rectangle_37" data-name="Rectangle 37" width="6.238" height="0.101" transform="translate(31.584 49.857)" fill="#fff" stroke="#707070" stroke-width="1"/>
      </g>
      <rect id="Rectangle_35" data-name="Rectangle 35" width="6.232" height="56.089" fill="#fff" stroke="#707070" stroke-width="1"/>
    </g>
    <text id="E_M_O_T_I_O_N_A_L" data-name="E
M
O
T
I
O
N
A
L" transform="translate(1297.724 73.5)" fill="#fff" font-size="7.769" font-family="SegoeUI, Segoe UI"><tspan x="5.416" y="8">E</tspan><tspan x="3.892" y="18.1">M</tspan><tspan x="4.452" y="28.199">O</tspan><tspan x="5.345" y="38.299">T</tspan><tspan x="6.347" y="48.399">I</tspan><tspan x="4.452" y="58.499">O</tspan><tspan x="4.475" y="68.598">N</tspan><tspan x="4.875" y="78.698">A</tspan><tspan x="5.552" y="88.798">L</tspan></text>
    <text id="I_N_T_E_L_L_E_C_T" data-name="I
N
T
E
L
L
E
C
T" transform="translate(1307.046 110.015)" fill="#fff" font-size="7.769" font-family="SegoeUI, Segoe UI"><tspan x="6.347" y="8">I</tspan><tspan x="4.475" y="18.1">N</tspan><tspan x="5.345" y="28.199">T</tspan><tspan x="5.416" y="38.299">E</tspan><tspan x="5.552" y="48.399">L</tspan><tspan x="5.552" y="58.499">L</tspan><tspan x="5.416" y="68.598">E</tspan><tspan x="4.976" y="78.698">C</tspan><tspan x="5.345" y="88.798">T</tspan></text>
  </g>
</svg>
