<svg xmlns="http://www.w3.org/2000/svg" width="30.166" height="30.166" viewBox="0 0 30.166 30.166"><path d="M-1992.779,1064.99a15.083,15.083,0,0,1,15.083,15.083,15.082,15.082,0,0,1-15.083,15.083,15.082,15.082,0,0,1-15.083-15.083A15.083,15.083,0,0,1-1992.779,1064.99Zm-4.791,20.125a2.09,2.09,0,0,0-2.231-.767l-.228.063-.888,1.532a1.237,1.237,0,0,0,.407,1.706,1.242,1.242,0,0,0,1.653-.324l.093-.141,1.192-2.068Zm6.615-10.079a3.426,3.426,0,0,0-.437,4.2l4.585,7.942a1.242,1.242,0,0,0,1.7.441,1.245,1.245,0,0,0,.526-1.53l-.074-.149-1.21-2.1h1.794a1.236,1.236,0,0,0,1.24-1.235v-.006a1.238,1.238,0,0,0-1.085-1.232l-.155-.008h-3.228l-3.308-5.727-.348-.6Zm.421-4.591a1.245,1.245,0,0,0-1.6.316l-.093.139-.554.954-.542-.954a1.242,1.242,0,0,0-1.7-.441,1.242,1.242,0,0,0-.523,1.53l.073.151,1.265,2.2-4.05,7.018h-3.164a1.235,1.235,0,0,0-1.238,1.234v.006a1.235,1.235,0,0,0,1.083,1.23l.155.01h11.283a1.722,1.722,0,0,0-1.222-2.471l-.181-.01h-3.852l5.322-9.215A1.242,1.242,0,0,0-1990.533,1070.445Z" transform="translate(2007.862 -1064.99)" fill="#fff"/></svg>