<svg xmlns="http://www.w3.org/2000/svg" width="75.11" height="132.515" viewBox="0 0 75.11 132.515"><g transform="translate(-1246.937 -73.5)"><circle cx="4.046" cy="4.046" r="4.046" transform="translate(1289.632 124.279)" fill="#fe5803"/><rect width="43.625" height="6.232" transform="translate(1253.169 75.952)" fill="#fff"/><rect width="31.59" height="6.232" transform="translate(1253.169 125.809)" fill="#fff"/><rect width="24.929" height="6.232" transform="translate(1259.401 88.416)" fill="#fff"/><rect width="24.929" height="6.232" transform="translate(1259.401 113.345)" fill="#fff"/><rect width="12.464" height="6.232" transform="translate(1259.401 100.88)" fill="#fff"/><rect width="6.232" height="56.089" transform="translate(1246.937 75.952)" fill="#fff"/><rect width="6.232" height="43.803" transform="translate(1290.562 75.952)" fill="#fff"/><rect width="6.238" height="0.101" transform="translate(1278.521 125.809)" fill="#fff"/><text transform="translate(1297.724 73.5)" fill="#fff" font-size="7.769" font-family="SegoeUI, Segoe UI"><tspan x="5.416" y="8">E</tspan><tspan x="3.892" y="18.1">M</tspan><tspan x="4.452" y="28.199">O</tspan><tspan x="5.345" y="38.299">T</tspan><tspan x="6.347" y="48.399">I</tspan><tspan x="4.452" y="58.499">O</tspan><tspan x="4.475" y="68.598">N</tspan><tspan x="4.875" y="78.698">A</tspan><tspan x="5.552" y="88.798">L</tspan></text><text transform="translate(1307.046 110.015)" fill="#fff" font-size="7.769" font-family="SegoeUI, Segoe UI"><tspan x="6.347" y="8">I</tspan><tspan x="4.475" y="18.1">N</tspan><tspan x="5.345" y="28.199">T</tspan><tspan x="5.416" y="38.299">E</tspan><tspan x="5.552" y="48.399">L</tspan><tspan x="5.552" y="58.499">L</tspan><tspan x="5.416" y="68.598">E</tspan><tspan x="4.976" y="78.698">C</tspan><tspan x="5.345" y="88.798">T</tspan></text></g></svg>